<?xml version="1.0" encoding="utf-8"?>
<!-- Generator: Adobe Illustrator 24.1.2, SVG Export Plug-In . SVG Version: 6.00 Build 0)  -->
<svg version="1.1" id="Calque_1" xmlns="http://www.w3.org/2000/svg" xmlns:xlink="http://www.w3.org/1999/xlink" x="0px" y="0px"
	 viewBox="0 0 552.2 494.2" style="enable-background:new 0 0 552.2 494.2;" xml:space="preserve">
<style type="text/css">
	.st0{fill:#A5C8FF;}
	.st1{fill:#F7E38D;}
	.st2{fill:#FFF0A2;}
	.st3{fill:#212121;}
	.st4{fill:#FD8369;}
	.st5{fill:none;stroke:#D14D37;stroke-linecap:round;stroke-linejoin:round;}
	.st6{fill:none;stroke:#3A3A3A;stroke-width:2;stroke-linecap:round;stroke-miterlimit:10;}
	.st7{fill:#3A3A3A;}
	.st8{fill:none;stroke:#212121;stroke-width:6;stroke-miterlimit:10;}
</style>
<g id="Layer_2">
	<g id="vector">
		<path class="st0" d="M490.9,48.7c27.7,45.8,8.2,125.1,10.1,192.2S526,363,513,408s-62.3,79.8-111.8,85.3s-99.1-18-166.4-27.7
			s-152.5-5-197-42.9s-48.4-118.2-18.5-175.8S113.1,154,167.8,113S268.4,24.7,328.5,7.4S463.4,2.7,490.9,48.7z"/>
		<path class="st1" d="M397.6,330.8c-0.1,4.6-12.7,97.9-12.7,97.9l-14.6,10.8h50.9c0,0,9.7-44.8,42.9-77.7
			c1.9-5-26.6-27.2-26.6-27.2L397.6,330.8z"/>
		<path class="st1" d="M163.7,298.9c-8.7-0.1-17.7-0.2-26.8-0.2c-6.6,0-13,0.7-13,2.5s10.1,26.5,11.3,27.7s13.5,2.8,13.5,9.8
			c0,3.4-1.3,17.7-16.9,17.7c-20.6,0-63.8-70.6-63.8-93c6.9-2.7,63.3-13.8,63.3-13.8"/>
		<path class="st2" d="M260.6,304.3c192,18.8,246.9,81.2,246.9,119.5c0,3.1-15.1,13.5-15.1,15.9h55.8c1-3,4-29,4-59
			c0-92.2-84.1-188-102-188c-6,0-23.4,6-77,6c-277.1,0-153.1-144-255-144c-33.1,0-51.3,42.8-66.8,42.8c-3.9,0-30.4-4.7-32.9-4.7
			s-11,3.7-11,11.8c0,62.8,54.4,66.2,77.6,80.8c11.6,7.3,39,53.8,46.2,64.3c9.9,16,115.2,179.9,115.2,179.9l-15,10.1h62.8
			L260.6,304.3"/>
		<path class="st3" d="M124,81.7c6.7-2.1,44.5-3.7,62.4,4.9c0,36-9.4,85.1-39.7,81.9C120.5,165.7,106.8,123.5,124,81.7z"/>
		<path class="st4" d="M59.7,144c3,5.5,26.9,40.1,42.9,34c10.7-4.1-3-36.8-9.2-44.4C89.6,135.7,70.6,142.9,59.7,144z"/>
		<path class="st5" d="M78.9,139.7c1.6,2.9,4.1,7.4,8.2,13.4"/>
		<path class="st6" d="M9.8,125.1c11.2,19.4,46.8,28.5,87.1,6.7"/>
		<ellipse class="st7" cx="20.6" cy="93.8" rx="8.1" ry="3.6"/>
		<ellipse class="st7" cx="88.1" cy="89.7" rx="4.1" ry="7.7"/>
		<path class="st2" d="M476.4,222.3c28.7,0,61.2-48.6,61.2-72.4c0-49.1-44.8-67.1-59.9-67.1c-34,0-42.6,33.8-42.6,37
			s1.4,7.6,2.1,7.6s5.4-2.4,8.5-2.4c29.3,0,32.1,22.3,32.1,25.9c0,29.1-27.9,43.4-32.5,43.4S465.2,222.3,476.4,222.3z"/>
		<path class="st8" d="M110.5,217.2c11.4-3.7,62.8-27.5,88.2-63"/>
	</g>
</g>
</svg>
